<svg width="120" height="160" viewBox="0 0 120 160" fill="none" xmlns="http://www.w3.org/2000/svg">
<g clip-path="url(#clip0_19_376)">
<path d="M0 80H120V150C120 155.523 115.523 160 110 160H10C4.47715 160 0 155.523 0 150V80Z" fill="#005566"/>
<path d="M30 0C25.3685 0 20.9822 1.04952 17.0658 2.92371C15.2566 1.11714 12.7588 0 10 0C4.47715 0 0 4.47715 0 10C0 12.7588 1.11714 15.2566 2.92371 17.0658C1.04952 20.9822 0 25.3685 0 30V80C0 85.5229 4.47715 90 10 90C15.5228 90 20 85.5229 20 80H100C100 85.5229 104.477 90 110 90C115.523 90 120 85.5229 120 80V30C120 25.3685 118.95 20.9822 117.076 17.0658C118.883 15.2566 120 12.7588 120 10C120 4.47715 115.523 0 110 0C107.241 0 104.743 1.11714 102.934 2.92371C99.0178 1.04952 94.6315 0 90 0C73.4315 0 60 13.4315 60 30C60 13.4315 46.5685 0 30 0Z" fill="#00CCDD"/>
<path d="M60 30C60 33.9397 59.224 37.8407 57.7164 41.4805C56.2087 45.1203 53.999 48.4274 51.2132 51.2132C48.4274 53.999 45.1203 56.2087 41.4805 57.7164C37.8407 59.224 33.9397 60 30 60C26.0603 60 22.1593 59.224 18.5195 57.7164C14.8797 56.2087 11.5726 53.999 8.7868 51.2132C6.00104 48.4274 3.79125 45.1203 2.28361 41.4805C0.775972 37.8407 0 33.9397 0 30L60 30Z" fill="white"/>
<path d="M60 30H120C120 33.9397 119.224 37.8407 117.716 41.4805C116.209 45.1203 113.999 48.4274 111.213 51.2132C108.427 53.999 105.12 56.2087 101.48 57.7164C97.8407 59.224 93.9397 60 90 60C86.0603 60 82.1593 59.224 78.5195 57.7164C74.8797 56.2087 71.5726 53.999 68.7868 51.2132C66.001 48.4274 63.7913 45.1203 62.2836 41.4805C60.776 37.8407 60 33.9397 60 30Z" fill="white"/>
<path d="M65 70V60H55V70H65Z" fill="white"/>
<path d="M11.2891 109.287C11.2891 111.455 11.7822 113.008 12.7686 113.945C13.7646 114.873 15.0146 115.337 16.5186 115.337C17.583 115.337 18.501 115.156 19.2725 114.795C20.0439 114.424 20.6006 113.94 20.9424 113.345H21.001L21.0596 115H27.0361V100.264H20.9131V109.463C20.7471 109.873 20.4883 110.22 20.1367 110.503C19.7949 110.786 19.4043 110.928 18.9648 110.928C18.5059 110.928 18.1299 110.791 17.8369 110.518C17.5537 110.234 17.4121 109.712 17.4121 108.95V100.264H11.2891V109.287Z" fill="white"/>
<path d="M29.1309 110.122V110.342C29.1602 112.002 29.8535 113.267 31.2109 114.136C32.5684 114.995 34.4482 115.425 36.8506 115.425C39.292 115.425 41.1719 114.995 42.4902 114.136C43.8184 113.267 44.4824 112.012 44.4824 110.371C44.4824 109.082 44.0381 108.071 43.1494 107.339C42.2607 106.606 40.8545 106.084 38.9307 105.771C37.2119 105.488 36.1719 105.259 35.8105 105.083C35.459 104.897 35.2832 104.648 35.2832 104.336C35.2832 104.033 35.4004 103.804 35.6348 103.647C35.8789 103.481 36.2793 103.398 36.8359 103.398C37.4023 103.398 37.8271 103.516 38.1104 103.75C38.3936 103.975 38.5352 104.302 38.5352 104.731V105.054H44.2334V104.775C44.2529 103.213 43.5986 101.992 42.2705 101.113C40.9521 100.234 39.1699 99.7949 36.9238 99.7949C34.6387 99.7949 32.8369 100.215 31.5186 101.055C30.21 101.885 29.5557 103.076 29.5557 104.629C29.5557 105.859 29.9512 106.865 30.7422 107.646C31.543 108.428 32.9199 108.984 34.873 109.316C36.582 109.629 37.6123 109.868 37.9639 110.034C38.3154 110.19 38.4912 110.444 38.4912 110.796C38.4912 111.147 38.3545 111.421 38.0811 111.616C37.8174 111.812 37.3779 111.909 36.7627 111.909C36.167 111.909 35.6982 111.807 35.3564 111.602C35.0146 111.396 34.8438 111.025 34.8438 110.488V110.166L29.1309 110.122Z" fill="white"/>
<path d="M63.4668 110.122V110.342C63.4961 112.002 64.1895 113.267 65.5469 114.136C66.9043 114.995 68.7842 115.425 71.1865 115.425C73.6279 115.425 75.5078 114.995 76.8262 114.136C78.1543 113.267 78.8184 112.012 78.8184 110.371C78.8184 109.082 78.374 108.071 77.4854 107.339C76.5967 106.606 75.1904 106.084 73.2666 105.771C71.5479 105.488 70.5078 105.259 70.1465 105.083C69.7949 104.897 69.6191 104.648 69.6191 104.336C69.6191 104.033 69.7363 103.804 69.9707 103.647C70.2148 103.481 70.6152 103.398 71.1719 103.398C71.7383 103.398 72.1631 103.516 72.4463 103.75C72.7295 103.975 72.8711 104.302 72.8711 104.731V105.054H78.5693V104.775C78.5889 103.213 77.9346 101.992 76.6064 101.113C75.2881 100.234 73.5059 99.7949 71.2598 99.7949C68.9746 99.7949 67.1729 100.215 65.8545 101.055C64.5459 101.885 63.8916 103.076 63.8916 104.629C63.8916 105.859 64.2871 106.865 65.0781 107.646C65.8789 108.428 67.2559 108.984 69.209 109.316C70.918 109.629 71.9482 109.868 72.2998 110.034C72.6514 110.19 72.8271 110.444 72.8271 110.796C72.8271 111.147 72.6904 111.421 72.417 111.616C72.1533 111.812 71.7139 111.909 71.0986 111.909C70.5029 111.909 70.0342 111.807 69.6924 111.602C69.3506 111.396 69.1797 111.025 69.1797 110.488V110.166L63.4668 110.122Z" fill="white"/>
<path d="M91.5771 107.866C91.5771 110.063 92.1533 111.851 93.3057 113.228C94.4678 114.604 96.0742 115.293 98.125 115.293C99.0723 115.293 99.9072 115.103 100.63 114.722C101.362 114.331 101.89 113.843 102.212 113.257H102.256L102.314 115H108.247V92.998H102.183V101.714C101.812 101.196 101.274 100.776 100.571 100.454C99.8779 100.132 99.0576 99.9707 98.1104 99.9707C96.1865 99.9707 94.6143 100.659 93.3936 102.036C92.1826 103.403 91.5771 105.19 91.5771 107.397V107.866ZM97.7881 108.057V107.222C97.7881 106.294 97.9834 105.562 98.374 105.024C98.7646 104.478 99.3164 104.204 100.029 104.204C100.576 104.204 101.016 104.346 101.348 104.629C101.689 104.902 101.938 105.249 102.095 105.669V109.565C101.929 109.985 101.665 110.337 101.304 110.62C100.952 110.903 100.522 111.045 100.015 111.045C99.292 111.045 98.7402 110.776 98.3594 110.239C97.9785 109.702 97.7881 108.975 97.7881 108.057Z" fill="white"/>
<path d="M11.3916 145H17.5586V122.998H11.3916V145Z" fill="white"/>
<path d="M20.3711 145H26.5674V130.264H20.3711V145ZM20.0488 126.045C20.0488 126.914 20.3418 127.646 20.9277 128.242C21.5137 128.838 22.3535 129.136 23.4473 129.136C24.5508 129.136 25.4004 128.838 25.9961 128.242C26.6016 127.646 26.9043 126.914 26.9043 126.045C26.9043 125.176 26.6064 124.453 26.0107 123.877C25.4248 123.291 24.5801 122.998 23.4766 122.998C22.373 122.998 21.5234 123.291 20.9277 123.877C20.3418 124.463 20.0488 125.186 20.0488 126.045Z" fill="white"/>
<path d="M29.3945 145H35.3418L35.4004 143.521H35.4443C35.7764 144.077 36.3281 144.512 37.0996 144.824C37.8809 145.137 38.7305 145.293 39.6484 145.293C41.543 145.293 43.0762 144.6 44.248 143.213C45.4297 141.816 46.0205 140.01 46.0205 137.793V137.324C46.0205 135.117 45.4395 133.33 44.2773 131.963C43.125 130.596 41.5967 129.912 39.6924 129.912C38.7842 129.912 37.9785 130.073 37.2754 130.396C36.582 130.708 35.9912 131.162 35.5029 131.758V122.998H29.3945V145ZM35.5029 139.419V135.83C35.6494 135.41 35.9033 135.039 36.2646 134.717C36.626 134.385 37.0898 134.219 37.6562 134.219C38.3887 134.219 38.9258 134.487 39.2676 135.024C39.6191 135.552 39.7949 136.274 39.7949 137.192V138.013C39.7949 138.94 39.6191 139.678 39.2676 140.225C38.916 140.771 38.3936 141.045 37.7002 141.045C37.0947 141.045 36.6113 140.884 36.25 140.562C35.8984 140.229 35.6494 139.849 35.5029 139.419Z" fill="white"/>
<path d="M46.167 130.264L51.8506 145H57.9004L63.5254 130.264H58.1348L55.6445 137.485C55.5664 137.778 55.498 138.042 55.4395 138.276C55.3906 138.511 55.3516 138.76 55.3223 139.023H55.2344C55.1953 138.76 55.1514 138.511 55.1025 138.276C55.0635 138.032 54.9951 137.769 54.8975 137.485L52.4658 130.264H46.167Z" fill="white"/>
<path d="M63.4521 140.679C63.4521 142.222 63.9355 143.369 64.9023 144.121C65.8691 144.873 67.124 145.249 68.667 145.249C69.9268 145.249 70.9912 145.039 71.8604 144.619C72.7295 144.199 73.3057 143.73 73.5889 143.213C73.6182 143.535 73.6719 143.857 73.75 144.18C73.8281 144.502 73.9307 144.775 74.0576 145H80.1221V144.78C79.917 144.419 79.7559 143.975 79.6387 143.447C79.5215 142.92 79.4629 142.368 79.4629 141.792V135.142C79.4629 133.306 78.833 131.963 77.5732 131.113C76.3135 130.264 74.4971 129.839 72.124 129.839C69.7998 129.839 67.915 130.278 66.4697 131.157C65.0342 132.036 64.3164 133.223 64.3164 134.717V135.01L70.1025 135.024V134.717C70.1025 134.316 70.2295 133.999 70.4834 133.765C70.7373 133.521 71.1621 133.398 71.7578 133.398C72.3438 133.398 72.7539 133.545 72.9883 133.838C73.2227 134.121 73.3398 134.507 73.3398 134.995V135.654H70.3516C68.3398 135.654 66.6846 136.079 65.3857 136.929C64.0967 137.769 63.4521 139.019 63.4521 140.679ZM69.5459 140.122C69.5459 139.624 69.7217 139.253 70.0732 139.009C70.4346 138.755 71.0059 138.628 71.7871 138.628H73.3398V139.536C73.3398 140.181 73.1494 140.708 72.7686 141.118C72.3877 141.528 71.8701 141.733 71.2158 141.733C70.6396 141.733 70.2148 141.587 69.9414 141.294C69.6777 141.001 69.5459 140.61 69.5459 140.122Z" fill="white"/>
<path d="M82.3926 145H88.5742V136.65C88.8379 136.074 89.2383 135.61 89.7754 135.259C90.3125 134.897 90.8594 134.717 91.416 134.717C91.6797 134.717 91.9189 134.731 92.1338 134.761C92.3584 134.79 92.5537 134.834 92.7197 134.893V130.132C92.6318 130.093 92.4756 130.049 92.251 130C92.0264 129.951 91.7822 129.927 91.5186 129.927C90.9131 129.927 90.3369 130.117 89.79 130.498C89.2432 130.869 88.8232 131.333 88.5303 131.89H88.4717L88.4277 130.264H82.3926V145Z" fill="white"/>
<path d="M93.8184 140.122V140.342C93.8477 142.002 94.541 143.267 95.8984 144.136C97.2559 144.995 99.1357 145.425 101.538 145.425C103.979 145.425 105.859 144.995 107.178 144.136C108.506 143.267 109.17 142.012 109.17 140.371C109.17 139.082 108.726 138.071 107.837 137.339C106.948 136.606 105.542 136.084 103.618 135.771C101.899 135.488 100.859 135.259 100.498 135.083C100.146 134.897 99.9707 134.648 99.9707 134.336C99.9707 134.033 100.088 133.804 100.322 133.647C100.566 133.481 100.967 133.398 101.523 133.398C102.09 133.398 102.515 133.516 102.798 133.75C103.081 133.975 103.223 134.302 103.223 134.731V135.054H108.921V134.775C108.94 133.213 108.286 131.992 106.958 131.113C105.64 130.234 103.857 129.795 101.611 129.795C99.3262 129.795 97.5244 130.215 96.2061 131.055C94.8975 131.885 94.2432 133.076 94.2432 134.629C94.2432 135.859 94.6387 136.865 95.4297 137.646C96.2305 138.428 97.6074 138.984 99.5605 139.316C101.27 139.629 102.3 139.868 102.651 140.034C103.003 140.19 103.179 140.444 103.179 140.796C103.179 141.147 103.042 141.421 102.769 141.616C102.505 141.812 102.065 141.909 101.45 141.909C100.854 141.909 100.386 141.807 100.044 141.602C99.7021 141.396 99.5312 141.025 99.5312 140.488V140.166L93.8184 140.122Z" fill="white"/>
<path d="M90.332 104.57V100.264H87.7246V96.5576H81.7334V100.264H79.6973V104.57H81.6602V110.078C81.6602 111.895 82.1484 113.232 83.125 114.092C84.1016 114.951 85.4443 115.381 87.1533 115.381C87.915 115.381 88.5693 115.332 89.1162 115.234C89.6631 115.137 90.0635 115.034 90.3174 114.927V110.884C90.1318 110.952 89.9316 111.011 89.7168 111.06C89.502 111.099 89.2822 111.118 89.0576 111.118C88.6377 111.118 88.3105 110.996 88.0762 110.752C87.8418 110.498 87.7246 109.98 87.7246 109.199V104.57H90.332Z" fill="white"/>
<path fill-rule="evenodd" clip-rule="evenodd" d="M46.0205 107.837C46.0205 110.181 46.7871 112.031 48.3203 113.389C49.8535 114.746 51.9531 115.425 54.6191 115.425C56.5137 115.425 58.0859 115.093 59.3359 114.429C60.5957 113.755 61.4697 112.788 61.958 111.528L57.1533 109.624C56.8896 110.044 56.5381 110.415 56.0986 110.737C55.6592 111.06 55.1318 111.221 54.5166 111.221C53.7451 111.221 53.1445 110.962 52.7148 110.444C52.3854 110.038 52.1852 109.467 52.1142 108.73H62.2217V107.163C62.2217 104.858 61.5234 103.057 60.127 101.758C58.7305 100.449 56.8115 99.7949 54.3701 99.7949C51.9092 99.7949 49.9023 100.479 48.3496 101.846C46.7969 103.203 46.0205 105.044 46.0205 107.368V107.837ZM54.2822 103.911C53.5791 103.911 53.0371 104.165 52.6562 104.673C52.3828 105.037 52.2076 105.54 52.1304 106.182H56.2744V105.918C56.2842 105.342 56.1182 104.863 55.7764 104.482C55.4346 104.102 54.9365 103.911 54.2822 103.911Z" fill="white"/>
<path d="M12.4701 5.65177C11.7415 5.23695 10.8984 5 10 5C7.23858 5 5 7.23858 5 10C5 10.8984 5.23695 11.7415 5.65177 12.4701C7.54312 9.84771 9.84771 7.54312 12.4701 5.65177Z" fill="black"/>
<path d="M107.53 5.65177C110.152 7.54312 112.457 9.84771 114.348 12.4701C114.763 11.7415 115 10.8984 115 10C115 7.23858 112.761 5 110 5C109.101 5 108.258 5.23695 107.53 5.65177Z" fill="black"/>
<path d="M97.0711 37.0711C98.9464 35.1957 100 32.6522 100 30L80 30C80 32.6522 81.0536 35.1957 82.9289 37.0711C84.8043 38.9464 87.3478 40 90 40C92.6522 40 95.1957 38.9464 97.0711 37.0711Z" fill="black"/>
<path d="M40 30C40 32.6522 38.9464 35.1957 37.0711 37.0711C35.1957 38.9464 32.6522 40 30 40C27.3478 40 24.8043 38.9464 22.9289 37.0711C21.0536 35.1957 20 32.6522 20 30L40 30Z" fill="black"/>
<path d="M67.0711 52.9289C68.9464 54.8043 70 57.3478 70 60H50C50 57.3478 51.0536 54.8043 52.9289 52.9289C54.8043 51.0536 57.3478 50 60 50C62.6522 50 65.1957 51.0536 67.0711 52.9289Z" fill="black"/>
</g>
<defs>
<clipPath id="clip0_19_376">
<rect width="120" height="160" fill="white"/>
</clipPath>
</defs>
</svg>
